<mxfile host="app.diagrams.net" modified="2023-10-21T03:10:02.251Z" agent="Mozilla/5.0 (Macintosh; Intel Mac OS X 10_15_7) AppleWebKit/537.36 (KHTML, like Gecko) Chrome/118.0.0.0 Safari/537.36" etag="Vc8rKtQSiorxtRw7jwJ5" version="22.0.6" type="github">
  <diagram id="C5RBs43oDa-KdzZeNtuy" name="Page-1">
    <mxGraphModel dx="1311" dy="727" grid="1" gridSize="10" guides="1" tooltips="1" connect="1" arrows="1" fold="1" page="1" pageScale="1" pageWidth="827" pageHeight="1169" math="0" shadow="0">
      <root>
        <mxCell id="WIyWlLk6GJQsqaUBKTNV-0" />
        <mxCell id="WIyWlLk6GJQsqaUBKTNV-1" parent="WIyWlLk6GJQsqaUBKTNV-0" />
        <mxCell id="L0QDfx9UxgabpVASo6Bn-4" value="Perfil.controller" style="swimlane;fontStyle=1;align=center;verticalAlign=top;childLayout=stackLayout;horizontal=1;startSize=26;horizontalStack=0;resizeParent=1;resizeParentMax=0;resizeLast=0;collapsible=1;marginBottom=0;whiteSpace=wrap;html=1;" parent="WIyWlLk6GJQsqaUBKTNV-1" vertex="1">
          <mxGeometry x="1027" y="100" width="220" height="110" as="geometry" />
        </mxCell>
        <mxCell id="L0QDfx9UxgabpVASo6Bn-5" value="+ perfilService: perfil.service" style="text;strokeColor=none;fillColor=none;align=left;verticalAlign=top;spacingLeft=4;spacingRight=4;overflow=hidden;rotatable=0;points=[[0,0.5],[1,0.5]];portConstraint=eastwest;whiteSpace=wrap;html=1;" parent="L0QDfx9UxgabpVASo6Bn-4" vertex="1">
          <mxGeometry y="26" width="220" height="26" as="geometry" />
        </mxCell>
        <mxCell id="L0QDfx9UxgabpVASo6Bn-6" value="" style="line;strokeWidth=1;fillColor=none;align=left;verticalAlign=middle;spacingTop=-1;spacingLeft=3;spacingRight=3;rotatable=0;labelPosition=right;points=[];portConstraint=eastwest;strokeColor=inherit;" parent="L0QDfx9UxgabpVASo6Bn-4" vertex="1">
          <mxGeometry y="52" width="220" height="8" as="geometry" />
        </mxCell>
        <mxCell id="L0QDfx9UxgabpVASo6Bn-7" value="+ getInfo(): Response&lt;br&gt;+ changePassword(): Response" style="text;strokeColor=none;fillColor=none;align=left;verticalAlign=top;spacingLeft=4;spacingRight=4;overflow=hidden;rotatable=0;points=[[0,0.5],[1,0.5]];portConstraint=eastwest;whiteSpace=wrap;html=1;" parent="L0QDfx9UxgabpVASo6Bn-4" vertex="1">
          <mxGeometry y="60" width="220" height="50" as="geometry" />
        </mxCell>
        <mxCell id="L0QDfx9UxgabpVASo6Bn-8" value="Perfil.service" style="swimlane;fontStyle=1;align=center;verticalAlign=top;childLayout=stackLayout;horizontal=1;startSize=26;horizontalStack=0;resizeParent=1;resizeParentMax=0;resizeLast=0;collapsible=1;marginBottom=0;whiteSpace=wrap;html=1;" parent="WIyWlLk6GJQsqaUBKTNV-1" vertex="1">
          <mxGeometry x="637" y="100" width="190" height="110" as="geometry" />
        </mxCell>
        <mxCell id="L0QDfx9UxgabpVASo6Bn-9" value="+ perfil: perfil.entity" style="text;strokeColor=none;fillColor=none;align=left;verticalAlign=top;spacingLeft=4;spacingRight=4;overflow=hidden;rotatable=0;points=[[0,0.5],[1,0.5]];portConstraint=eastwest;whiteSpace=wrap;html=1;" parent="L0QDfx9UxgabpVASo6Bn-8" vertex="1">
          <mxGeometry y="26" width="190" height="26" as="geometry" />
        </mxCell>
        <mxCell id="L0QDfx9UxgabpVASo6Bn-10" value="" style="line;strokeWidth=1;fillColor=none;align=left;verticalAlign=middle;spacingTop=-1;spacingLeft=3;spacingRight=3;rotatable=0;labelPosition=right;points=[];portConstraint=eastwest;strokeColor=inherit;" parent="L0QDfx9UxgabpVASo6Bn-8" vertex="1">
          <mxGeometry y="52" width="190" height="8" as="geometry" />
        </mxCell>
        <mxCell id="L0QDfx9UxgabpVASo6Bn-11" value="+ getInfo(): Response&lt;br&gt;+ changePassword(): Response" style="text;strokeColor=none;fillColor=none;align=left;verticalAlign=top;spacingLeft=4;spacingRight=4;overflow=hidden;rotatable=0;points=[[0,0.5],[1,0.5]];portConstraint=eastwest;whiteSpace=wrap;html=1;" parent="L0QDfx9UxgabpVASo6Bn-8" vertex="1">
          <mxGeometry y="60" width="190" height="50" as="geometry" />
        </mxCell>
        <mxCell id="L0QDfx9UxgabpVASo6Bn-12" value="Perfil.entity" style="swimlane;fontStyle=1;align=center;verticalAlign=top;childLayout=stackLayout;horizontal=1;startSize=26;horizontalStack=0;resizeParent=1;resizeParentMax=0;resizeLast=0;collapsible=1;marginBottom=0;whiteSpace=wrap;html=1;" parent="WIyWlLk6GJQsqaUBKTNV-1" vertex="1">
          <mxGeometry x="383" y="70" width="160" height="128" as="geometry" />
        </mxCell>
        <mxCell id="L0QDfx9UxgabpVASo6Bn-13" value="+ name: string&lt;br&gt;+ email: string&lt;br&gt;+ username: string&lt;br&gt;+ password: string&lt;br&gt;+ student_id: Int" style="text;strokeColor=none;fillColor=none;align=left;verticalAlign=top;spacingLeft=4;spacingRight=4;overflow=hidden;rotatable=0;points=[[0,0.5],[1,0.5]];portConstraint=eastwest;whiteSpace=wrap;html=1;" parent="L0QDfx9UxgabpVASo6Bn-12" vertex="1">
          <mxGeometry y="26" width="160" height="94" as="geometry" />
        </mxCell>
        <mxCell id="L0QDfx9UxgabpVASo6Bn-14" value="" style="line;strokeWidth=1;fillColor=none;align=left;verticalAlign=middle;spacingTop=-1;spacingLeft=3;spacingRight=3;rotatable=0;labelPosition=right;points=[];portConstraint=eastwest;strokeColor=inherit;" parent="L0QDfx9UxgabpVASo6Bn-12" vertex="1">
          <mxGeometry y="120" width="160" height="8" as="geometry" />
        </mxCell>
        <mxCell id="L0QDfx9UxgabpVASo6Bn-16" value="RegistroEmocional.entity" style="swimlane;fontStyle=1;align=center;verticalAlign=top;childLayout=stackLayout;horizontal=1;startSize=26;horizontalStack=0;resizeParent=1;resizeParentMax=0;resizeLast=0;collapsible=1;marginBottom=0;whiteSpace=wrap;html=1;" parent="WIyWlLk6GJQsqaUBKTNV-1" vertex="1">
          <mxGeometry x="369" y="310" width="160" height="98" as="geometry" />
        </mxCell>
        <mxCell id="L0QDfx9UxgabpVASo6Bn-17" value="+ title: string&lt;br&gt;+ description: string&lt;br&gt;+ date: Date&lt;br&gt;+ student_id: Int" style="text;strokeColor=none;fillColor=none;align=left;verticalAlign=top;spacingLeft=4;spacingRight=4;overflow=hidden;rotatable=0;points=[[0,0.5],[1,0.5]];portConstraint=eastwest;whiteSpace=wrap;html=1;" parent="L0QDfx9UxgabpVASo6Bn-16" vertex="1">
          <mxGeometry y="26" width="160" height="64" as="geometry" />
        </mxCell>
        <mxCell id="L0QDfx9UxgabpVASo6Bn-18" value="" style="line;strokeWidth=1;fillColor=none;align=left;verticalAlign=middle;spacingTop=-1;spacingLeft=3;spacingRight=3;rotatable=0;labelPosition=right;points=[];portConstraint=eastwest;strokeColor=inherit;" parent="L0QDfx9UxgabpVASo6Bn-16" vertex="1">
          <mxGeometry y="90" width="160" height="8" as="geometry" />
        </mxCell>
        <mxCell id="L0QDfx9UxgabpVASo6Bn-24" value="RegistroEmocional.service" style="swimlane;fontStyle=1;align=center;verticalAlign=top;childLayout=stackLayout;horizontal=1;startSize=26;horizontalStack=0;resizeParent=1;resizeParentMax=0;resizeLast=0;collapsible=1;marginBottom=0;whiteSpace=wrap;html=1;" parent="WIyWlLk6GJQsqaUBKTNV-1" vertex="1">
          <mxGeometry x="633" y="330" width="230" height="130" as="geometry" />
        </mxCell>
        <mxCell id="L0QDfx9UxgabpVASo6Bn-25" value="+ registroE: RegistroEmocional.entity" style="text;strokeColor=none;fillColor=none;align=left;verticalAlign=top;spacingLeft=4;spacingRight=4;overflow=hidden;rotatable=0;points=[[0,0.5],[1,0.5]];portConstraint=eastwest;whiteSpace=wrap;html=1;" parent="L0QDfx9UxgabpVASo6Bn-24" vertex="1">
          <mxGeometry y="26" width="230" height="26" as="geometry" />
        </mxCell>
        <mxCell id="L0QDfx9UxgabpVASo6Bn-26" value="" style="line;strokeWidth=1;fillColor=none;align=left;verticalAlign=middle;spacingTop=-1;spacingLeft=3;spacingRight=3;rotatable=0;labelPosition=right;points=[];portConstraint=eastwest;strokeColor=inherit;" parent="L0QDfx9UxgabpVASo6Bn-24" vertex="1">
          <mxGeometry y="52" width="230" height="8" as="geometry" />
        </mxCell>
        <mxCell id="L0QDfx9UxgabpVASo6Bn-27" value="+ getRegistro():&lt;br style=&quot;border-color: var(--border-color);&quot;&gt;+ getAllRegistros():&lt;br style=&quot;border-color: var(--border-color);&quot;&gt;+ postRegistro():" style="text;strokeColor=none;fillColor=none;align=left;verticalAlign=top;spacingLeft=4;spacingRight=4;overflow=hidden;rotatable=0;points=[[0,0.5],[1,0.5]];portConstraint=eastwest;whiteSpace=wrap;html=1;" parent="L0QDfx9UxgabpVASo6Bn-24" vertex="1">
          <mxGeometry y="60" width="230" height="70" as="geometry" />
        </mxCell>
        <mxCell id="L0QDfx9UxgabpVASo6Bn-28" value="Registro.controller" style="swimlane;fontStyle=1;align=center;verticalAlign=top;childLayout=stackLayout;horizontal=1;startSize=26;horizontalStack=0;resizeParent=1;resizeParentMax=0;resizeLast=0;collapsible=1;marginBottom=0;whiteSpace=wrap;html=1;" parent="WIyWlLk6GJQsqaUBKTNV-1" vertex="1">
          <mxGeometry x="979" y="400" width="320" height="158" as="geometry" />
        </mxCell>
        <mxCell id="L0QDfx9UxgabpVASo6Bn-29" value="+ registroEmService: RegistroEmocional.service&lt;br&gt;+ registroTrasService: RegistroTrascendental.service" style="text;strokeColor=none;fillColor=none;align=left;verticalAlign=top;spacingLeft=4;spacingRight=4;overflow=hidden;rotatable=0;points=[[0,0.5],[1,0.5]];portConstraint=eastwest;whiteSpace=wrap;html=1;" parent="L0QDfx9UxgabpVASo6Bn-28" vertex="1">
          <mxGeometry y="26" width="320" height="54" as="geometry" />
        </mxCell>
        <mxCell id="L0QDfx9UxgabpVASo6Bn-30" value="" style="line;strokeWidth=1;fillColor=none;align=left;verticalAlign=middle;spacingTop=-1;spacingLeft=3;spacingRight=3;rotatable=0;labelPosition=right;points=[];portConstraint=eastwest;strokeColor=inherit;" parent="L0QDfx9UxgabpVASo6Bn-28" vertex="1">
          <mxGeometry y="80" width="320" height="8" as="geometry" />
        </mxCell>
        <mxCell id="L0QDfx9UxgabpVASo6Bn-31" value="+ getRegistro(): Response&lt;br&gt;+ getAllRegistros(): Response&lt;br&gt;+ postRegistro(): Response" style="text;strokeColor=none;fillColor=none;align=left;verticalAlign=top;spacingLeft=4;spacingRight=4;overflow=hidden;rotatable=0;points=[[0,0.5],[1,0.5]];portConstraint=eastwest;whiteSpace=wrap;html=1;" parent="L0QDfx9UxgabpVASo6Bn-28" vertex="1">
          <mxGeometry y="88" width="320" height="70" as="geometry" />
        </mxCell>
        <mxCell id="cBkFvcuq_8SDpKLgJUTm-0" value="RegistroTrascendental.entity" style="swimlane;fontStyle=1;align=center;verticalAlign=top;childLayout=stackLayout;horizontal=1;startSize=26;horizontalStack=0;resizeParent=1;resizeParentMax=0;resizeLast=0;collapsible=1;marginBottom=0;whiteSpace=wrap;html=1;" vertex="1" parent="WIyWlLk6GJQsqaUBKTNV-1">
          <mxGeometry x="366" y="467" width="180" height="148" as="geometry" />
        </mxCell>
        <mxCell id="cBkFvcuq_8SDpKLgJUTm-1" value="+ title: string&lt;br&gt;+ description: string&lt;br&gt;+ date: Date&lt;br&gt;+ where: string&lt;br&gt;+ doing: string&lt;br&gt;+ with: string&lt;br&gt;+ student_id: Int" style="text;strokeColor=none;fillColor=none;align=left;verticalAlign=top;spacingLeft=4;spacingRight=4;overflow=hidden;rotatable=0;points=[[0,0.5],[1,0.5]];portConstraint=eastwest;whiteSpace=wrap;html=1;" vertex="1" parent="cBkFvcuq_8SDpKLgJUTm-0">
          <mxGeometry y="26" width="180" height="114" as="geometry" />
        </mxCell>
        <mxCell id="cBkFvcuq_8SDpKLgJUTm-2" value="" style="line;strokeWidth=1;fillColor=none;align=left;verticalAlign=middle;spacingTop=-1;spacingLeft=3;spacingRight=3;rotatable=0;labelPosition=right;points=[];portConstraint=eastwest;strokeColor=inherit;" vertex="1" parent="cBkFvcuq_8SDpKLgJUTm-0">
          <mxGeometry y="140" width="180" height="8" as="geometry" />
        </mxCell>
        <mxCell id="cBkFvcuq_8SDpKLgJUTm-4" value="registroTrascendental.service" style="swimlane;fontStyle=1;align=center;verticalAlign=top;childLayout=stackLayout;horizontal=1;startSize=26;horizontalStack=0;resizeParent=1;resizeParentMax=0;resizeLast=0;collapsible=1;marginBottom=0;whiteSpace=wrap;html=1;" vertex="1" parent="WIyWlLk6GJQsqaUBKTNV-1">
          <mxGeometry x="623" y="510" width="240" height="130" as="geometry" />
        </mxCell>
        <mxCell id="cBkFvcuq_8SDpKLgJUTm-5" value="+ registroT: registroTrascendental.entity" style="text;strokeColor=none;fillColor=none;align=left;verticalAlign=top;spacingLeft=4;spacingRight=4;overflow=hidden;rotatable=0;points=[[0,0.5],[1,0.5]];portConstraint=eastwest;whiteSpace=wrap;html=1;" vertex="1" parent="cBkFvcuq_8SDpKLgJUTm-4">
          <mxGeometry y="26" width="240" height="26" as="geometry" />
        </mxCell>
        <mxCell id="cBkFvcuq_8SDpKLgJUTm-6" value="" style="line;strokeWidth=1;fillColor=none;align=left;verticalAlign=middle;spacingTop=-1;spacingLeft=3;spacingRight=3;rotatable=0;labelPosition=right;points=[];portConstraint=eastwest;strokeColor=inherit;" vertex="1" parent="cBkFvcuq_8SDpKLgJUTm-4">
          <mxGeometry y="52" width="240" height="8" as="geometry" />
        </mxCell>
        <mxCell id="cBkFvcuq_8SDpKLgJUTm-7" value="+ getRegistro():&lt;br style=&quot;border-color: var(--border-color);&quot;&gt;+ getAllRegistros():&lt;br style=&quot;border-color: var(--border-color);&quot;&gt;+ postRegistro():" style="text;strokeColor=none;fillColor=none;align=left;verticalAlign=top;spacingLeft=4;spacingRight=4;overflow=hidden;rotatable=0;points=[[0,0.5],[1,0.5]];portConstraint=eastwest;whiteSpace=wrap;html=1;" vertex="1" parent="cBkFvcuq_8SDpKLgJUTm-4">
          <mxGeometry y="60" width="240" height="70" as="geometry" />
        </mxCell>
        <mxCell id="cBkFvcuq_8SDpKLgJUTm-15" value="Notification.entity" style="swimlane;fontStyle=1;align=center;verticalAlign=top;childLayout=stackLayout;horizontal=1;startSize=26;horizontalStack=0;resizeParent=1;resizeParentMax=0;resizeLast=0;collapsible=1;marginBottom=0;whiteSpace=wrap;html=1;" vertex="1" parent="WIyWlLk6GJQsqaUBKTNV-1">
          <mxGeometry x="366" y="740" width="180" height="118" as="geometry" />
        </mxCell>
        <mxCell id="cBkFvcuq_8SDpKLgJUTm-16" value="+ token: string&lt;br&gt;+ device_type: string&lt;br&gt;+ active: boolean&lt;br&gt;+ student_id: Int" style="text;strokeColor=none;fillColor=none;align=left;verticalAlign=top;spacingLeft=4;spacingRight=4;overflow=hidden;rotatable=0;points=[[0,0.5],[1,0.5]];portConstraint=eastwest;whiteSpace=wrap;html=1;" vertex="1" parent="cBkFvcuq_8SDpKLgJUTm-15">
          <mxGeometry y="26" width="180" height="84" as="geometry" />
        </mxCell>
        <mxCell id="cBkFvcuq_8SDpKLgJUTm-17" value="" style="line;strokeWidth=1;fillColor=none;align=left;verticalAlign=middle;spacingTop=-1;spacingLeft=3;spacingRight=3;rotatable=0;labelPosition=right;points=[];portConstraint=eastwest;strokeColor=inherit;" vertex="1" parent="cBkFvcuq_8SDpKLgJUTm-15">
          <mxGeometry y="110" width="180" height="8" as="geometry" />
        </mxCell>
        <mxCell id="cBkFvcuq_8SDpKLgJUTm-24" value="Notification.service" style="swimlane;fontStyle=1;align=center;verticalAlign=top;childLayout=stackLayout;horizontal=1;startSize=26;horizontalStack=0;resizeParent=1;resizeParentMax=0;resizeLast=0;collapsible=1;marginBottom=0;whiteSpace=wrap;html=1;" vertex="1" parent="WIyWlLk6GJQsqaUBKTNV-1">
          <mxGeometry x="648" y="743" width="180" height="130" as="geometry" />
        </mxCell>
        <mxCell id="cBkFvcuq_8SDpKLgJUTm-25" value="+ notification: Notification.entity" style="text;strokeColor=none;fillColor=none;align=left;verticalAlign=top;spacingLeft=4;spacingRight=4;overflow=hidden;rotatable=0;points=[[0,0.5],[1,0.5]];portConstraint=eastwest;whiteSpace=wrap;html=1;" vertex="1" parent="cBkFvcuq_8SDpKLgJUTm-24">
          <mxGeometry y="26" width="180" height="26" as="geometry" />
        </mxCell>
        <mxCell id="cBkFvcuq_8SDpKLgJUTm-26" value="" style="line;strokeWidth=1;fillColor=none;align=left;verticalAlign=middle;spacingTop=-1;spacingLeft=3;spacingRight=3;rotatable=0;labelPosition=right;points=[];portConstraint=eastwest;strokeColor=inherit;" vertex="1" parent="cBkFvcuq_8SDpKLgJUTm-24">
          <mxGeometry y="52" width="180" height="8" as="geometry" />
        </mxCell>
        <mxCell id="cBkFvcuq_8SDpKLgJUTm-27" value="+ enableNotification():&lt;br&gt;+ unableNotification():&lt;br&gt;+ sendPush():" style="text;strokeColor=none;fillColor=none;align=left;verticalAlign=top;spacingLeft=4;spacingRight=4;overflow=hidden;rotatable=0;points=[[0,0.5],[1,0.5]];portConstraint=eastwest;whiteSpace=wrap;html=1;" vertex="1" parent="cBkFvcuq_8SDpKLgJUTm-24">
          <mxGeometry y="60" width="180" height="70" as="geometry" />
        </mxCell>
        <mxCell id="cBkFvcuq_8SDpKLgJUTm-28" value="Notification.controller" style="swimlane;fontStyle=1;align=center;verticalAlign=top;childLayout=stackLayout;horizontal=1;startSize=26;horizontalStack=0;resizeParent=1;resizeParentMax=0;resizeLast=0;collapsible=1;marginBottom=0;whiteSpace=wrap;html=1;" vertex="1" parent="WIyWlLk6GJQsqaUBKTNV-1">
          <mxGeometry x="1007" y="743" width="240" height="130" as="geometry" />
        </mxCell>
        <mxCell id="cBkFvcuq_8SDpKLgJUTm-29" value="+ notificationService: notification.service" style="text;strokeColor=none;fillColor=none;align=left;verticalAlign=top;spacingLeft=4;spacingRight=4;overflow=hidden;rotatable=0;points=[[0,0.5],[1,0.5]];portConstraint=eastwest;whiteSpace=wrap;html=1;" vertex="1" parent="cBkFvcuq_8SDpKLgJUTm-28">
          <mxGeometry y="26" width="240" height="26" as="geometry" />
        </mxCell>
        <mxCell id="cBkFvcuq_8SDpKLgJUTm-30" value="" style="line;strokeWidth=1;fillColor=none;align=left;verticalAlign=middle;spacingTop=-1;spacingLeft=3;spacingRight=3;rotatable=0;labelPosition=right;points=[];portConstraint=eastwest;strokeColor=inherit;" vertex="1" parent="cBkFvcuq_8SDpKLgJUTm-28">
          <mxGeometry y="52" width="240" height="8" as="geometry" />
        </mxCell>
        <mxCell id="cBkFvcuq_8SDpKLgJUTm-31" value="+ getRegistro(): Response&lt;br&gt;+ getAllRegistros(): Response&lt;br&gt;+ postRegistro(): Response" style="text;strokeColor=none;fillColor=none;align=left;verticalAlign=top;spacingLeft=4;spacingRight=4;overflow=hidden;rotatable=0;points=[[0,0.5],[1,0.5]];portConstraint=eastwest;whiteSpace=wrap;html=1;" vertex="1" parent="cBkFvcuq_8SDpKLgJUTm-28">
          <mxGeometry y="60" width="240" height="70" as="geometry" />
        </mxCell>
        <mxCell id="cBkFvcuq_8SDpKLgJUTm-32" value="" style="endArrow=diamondThin;endFill=1;endSize=24;html=1;rounded=0;" edge="1" parent="WIyWlLk6GJQsqaUBKTNV-1" source="cBkFvcuq_8SDpKLgJUTm-25" target="cBkFvcuq_8SDpKLgJUTm-16">
          <mxGeometry width="160" relative="1" as="geometry">
            <mxPoint x="682" y="699" as="sourcePoint" />
            <mxPoint x="842" y="699" as="targetPoint" />
          </mxGeometry>
        </mxCell>
        <mxCell id="cBkFvcuq_8SDpKLgJUTm-33" value="" style="endArrow=diamondThin;endFill=1;endSize=24;html=1;rounded=0;" edge="1" parent="WIyWlLk6GJQsqaUBKTNV-1" source="cBkFvcuq_8SDpKLgJUTm-29" target="cBkFvcuq_8SDpKLgJUTm-25">
          <mxGeometry width="160" relative="1" as="geometry">
            <mxPoint x="603" y="805" as="sourcePoint" />
            <mxPoint x="542" y="814" as="targetPoint" />
          </mxGeometry>
        </mxCell>
        <mxCell id="cBkFvcuq_8SDpKLgJUTm-34" value="" style="endArrow=diamondThin;endFill=1;endSize=24;html=1;rounded=0;" edge="1" parent="WIyWlLk6GJQsqaUBKTNV-1" source="L0QDfx9UxgabpVASo6Bn-25" target="L0QDfx9UxgabpVASo6Bn-17">
          <mxGeometry width="160" relative="1" as="geometry">
            <mxPoint x="849" y="763" as="sourcePoint" />
            <mxPoint x="779" y="763" as="targetPoint" />
          </mxGeometry>
        </mxCell>
        <mxCell id="cBkFvcuq_8SDpKLgJUTm-35" value="" style="endArrow=diamondThin;endFill=1;endSize=24;html=1;rounded=0;" edge="1" parent="WIyWlLk6GJQsqaUBKTNV-1" source="cBkFvcuq_8SDpKLgJUTm-5" target="cBkFvcuq_8SDpKLgJUTm-1">
          <mxGeometry width="160" relative="1" as="geometry">
            <mxPoint x="649" y="366" as="sourcePoint" />
            <mxPoint x="539" y="373" as="targetPoint" />
          </mxGeometry>
        </mxCell>
        <mxCell id="cBkFvcuq_8SDpKLgJUTm-36" value="" style="endArrow=diamondThin;endFill=1;endSize=24;html=1;rounded=0;exitX=0;exitY=0.5;exitDx=0;exitDy=0;entryX=1;entryY=0.5;entryDx=0;entryDy=0;" edge="1" parent="WIyWlLk6GJQsqaUBKTNV-1" source="L0QDfx9UxgabpVASo6Bn-29" target="L0QDfx9UxgabpVASo6Bn-25">
          <mxGeometry width="160" relative="1" as="geometry">
            <mxPoint x="654" y="542" as="sourcePoint" />
            <mxPoint x="549" y="554" as="targetPoint" />
          </mxGeometry>
        </mxCell>
        <mxCell id="cBkFvcuq_8SDpKLgJUTm-37" value="" style="endArrow=diamondThin;endFill=1;endSize=24;html=1;rounded=0;entryX=1;entryY=0.5;entryDx=0;entryDy=0;exitX=0;exitY=0.5;exitDx=0;exitDy=0;" edge="1" parent="WIyWlLk6GJQsqaUBKTNV-1" source="L0QDfx9UxgabpVASo6Bn-29" target="cBkFvcuq_8SDpKLgJUTm-5">
          <mxGeometry width="160" relative="1" as="geometry">
            <mxPoint x="1069" y="630" as="sourcePoint" />
            <mxPoint x="909" y="560" as="targetPoint" />
          </mxGeometry>
        </mxCell>
        <mxCell id="cBkFvcuq_8SDpKLgJUTm-38" value="" style="endArrow=diamondThin;endFill=1;endSize=24;html=1;rounded=0;" edge="1" parent="WIyWlLk6GJQsqaUBKTNV-1" source="L0QDfx9UxgabpVASo6Bn-9" target="L0QDfx9UxgabpVASo6Bn-13">
          <mxGeometry width="160" relative="1" as="geometry">
            <mxPoint x="663" y="296" as="sourcePoint" />
            <mxPoint x="553" y="303" as="targetPoint" />
          </mxGeometry>
        </mxCell>
        <mxCell id="cBkFvcuq_8SDpKLgJUTm-39" value="" style="endArrow=diamondThin;endFill=1;endSize=24;html=1;rounded=0;" edge="1" parent="WIyWlLk6GJQsqaUBKTNV-1" source="L0QDfx9UxgabpVASo6Bn-5" target="L0QDfx9UxgabpVASo6Bn-9">
          <mxGeometry width="160" relative="1" as="geometry">
            <mxPoint x="633" y="132" as="sourcePoint" />
            <mxPoint x="553" y="142" as="targetPoint" />
          </mxGeometry>
        </mxCell>
      </root>
    </mxGraphModel>
  </diagram>
</mxfile>
